<?xml version="1.0" encoding="iso-8859-1"?>
<!-- Uploaded to: SVG Repo, www.svgrepo.com, Generator: SVG Repo Mixer Tools -->
<svg height="800px" width="800px" version="1.1" id="Layer_1" xmlns="http://www.w3.org/2000/svg" xmlns:xlink="http://www.w3.org/1999/xlink" 
	 viewBox="0 0 383.998 383.998" xml:space="preserve">
<g transform="translate(0 -1020.36)">
	<g shape-rendering="auto" image-rendering="auto" color-rendering="auto" color-interpolation="sRGB">
		<path style="fill:#5A3392;" d="M204.937,1020.42c-19.624,0.416-44.152,8.355-65.437,16.406
			c-28.066,10.615-46.651,42.721-45,72.156l1.187,22.563l-7.094-0.16c-22.251-0.305-40.625,17.811-40.625,40.064v5.188
			c0,10.662,4.354,20.941,12.031,28.344l31.906,30.719v0.688c0,29.787,18.203,55.402,44.063,66.314v49.563h19.781v24.031h-19.781
			v4.094c-0.001,13.16,10.933,23.969,24.094,23.969h111.969c13.16,0,23.969-10.811,23.969-23.969v-34.5h-15.937v-24.031h15.937
			v-21.375c23.608-11.822,40.031-35.965,40.031-64.094v-125.656c0-30.643-21.069-63.111-50.531-73.125
			c-25.802-8.77-56.771-17.686-80.437-17.219c-0.043,0-0.085,0-0.128,0L204.937,1020.42z"/>
		<path style="fill:#EE746C;" d="M205.281,1036.483h0.03c19.098-0.367,49.891,7.75,75,16.281c21.032,7.148,39.656,35.299,39.656,58
			v125.656c0,31.025-24.945,56-55.968,56H163.843c-31.024,0-56-24.975-56-56v-4.123c0.001-2.184-0.891-4.271-2.467-5.781
			l-34.25-33.063c-4.554-4.391-7.094-10.455-7.094-16.783v-5.189c0-13.535,10.809-24.262,24.344-24.094l76.063,0.943
			c6.9,0,13.471,2.363,18.187,6.625c4.554,4.111,5.654,9.219,5.654,14.281v24.438c0,6.395-2.51,12.527-6.969,16.656
			c-4.699,4.348-10.492,5.563-15.812,5.563h-8.5c-6.407,0-12.637-2.395-17.25-6.844c-2.679-2.582-8.031-7.813-8.031-7.813
			c-3.202-3.063-8.28-2.951-11.344,0.25s-2.951,8.281,0.25,11.344l0,0c0,0,5.352,5.066,8.031,7.656
			c7.59,7.316,17.798,11.469,28.344,11.469h8.5c8.036,0,18.29-2.164,26.687-9.938c7.288-6.746,11.215-16.029,11.876-25.625h62.656
			c10.603,0.002,20.71-4.203,28.218-11.686l6.625-6.5c3.213-3.033,3.357-8.098,0.324-11.311c-1.58-1.674-3.805-2.584-6.105-2.502
			h-0.032c-2.052,0.098-3.988,0.98-5.406,2.467l-6.625,6.5c-4.511,4.5-10.626,7.094-17,7.094h-62.375v-11.219
			c0-7.854-2.316-18.271-10.968-26.094c-8.032-7.26-18.434-10.623-28.718-10.75l-52.907-0.721l-1.282-23.623
			c-1.203-21.463,15.119-48.807,34.718-56.219c20.6-7.793,44.794-15.02,60.094-15.344L205.281,1036.483z"/>
		<path style="fill:#FB9761;" d="M204.064,1048.211h0.027c17.348-0.305,45.319,7.039,68.127,14.789
			c19.105,6.492,36.022,32.064,36.022,52.686v114.141c0,28.182-22.66,50.869-50.84,50.869h-90.978
			c-28.181,0-50.868-22.688-50.868-50.869v-3.742c0.001-1.982-0.807-3.879-2.237-5.25l-31.111-30.031
			c-4.136-3.992-6.445-9.498-6.445-15.244v-4.717c0-12.297,9.819-22.039,22.114-21.887l69.092,0.848
			c6.268,0,12.237,2.146,16.52,6.021c4.136,3.73,5.134,8.375,5.134,12.975v22.197c0,5.805-2.28,11.379-6.33,15.129
			c-4.269,3.953-9.53,5.055-14.363,5.055h-7.722c-5.817,0-11.479-2.176-15.669-6.217c-2.437-2.346-7.296-7.096-7.296-7.096
			c-2.89-2.803-7.503-2.73-10.305,0.158c-2.802,2.891-2.731,7.504,0.159,10.307c0.023,0.021,0.047,0.045,0.07,0.066
			c0,0,4.862,4.607,7.295,6.955c6.895,6.646,16.167,10.418,25.747,10.418h7.722c7.299,0,16.614-1.967,24.24-9.027
			c6.621-6.129,10.188-14.561,10.788-23.277h56.914c9.631,0,18.812-3.816,25.632-10.615l6.023-5.902
			c2.918-2.756,3.05-7.355,0.294-10.273c-1.435-1.52-3.455-2.348-5.543-2.273h-0.029c-1.863,0.088-3.622,0.889-4.91,2.238
			l-6.023,5.9c-4.1,4.088-9.653,6.445-15.442,6.445h-56.66v-10.189c0-7.135-2.104-16.598-9.963-23.703
			c-7.296-6.594-16.745-9.65-26.087-9.766l-48.058-0.656l-1.167-21.459c-1.095-19.494,13.734-44.334,31.537-51.066
			c18.712-7.078,40.689-13.641,54.587-13.938L204.064,1048.211z"/>
		<path style="fill:#29A3EC;" d="M152.031,1308.36h11.813h48.937l-18.344,18.438c-3.132,3.117-3.145,8.182-0.029,11.314
			c0.01,0.01,0.019,0.02,0.029,0.029l26.219,26.219l-23.969,24.094h-36.625c-4.511-0.002-8.031-3.518-8.031-8.031V1308.36z"/>
		<path style="fill:#3CDEF6;" d="M235.312,1308.36H264h16.063v72.063c0,4.512-3.52,8.031-8.031,8.031h-52.813l18.313-18.438
			c3.061-3.113,3.061-8.105,0-11.219l-26.094-26.342l23.875-24.094L235.312,1308.36z"/>
		<path style="fill:#FFFFFF;" d="M257.165,1067.951c-4.399,0.418-7.626,4.324-7.207,8.723c0.291,3.063,2.313,5.688,5.2,6.75
			c14.372,5.752,20.703,14.291,27.638,27.992c1.99,3.947,6.802,5.533,10.748,3.543s5.533-6.801,3.543-10.748l0,0
			c-7.648-15.111-17.677-28.326-36.023-35.668c-1.227-0.523-2.566-0.732-3.894-0.607L257.165,1067.951z"/>
	</g>
	<path style="fill:#FFFFFF;" d="M303,1131.92c0,4.418-3.582,8-8,8s-8-3.582-8-8s3.582-8,8-8S303,1127.502,303,1131.92z"/>
	<g shape-rendering="auto" image-rendering="auto" color-rendering="auto" color-interpolation="sRGB">
		<path style="fill:#5A3392;" d="M204.967,1020.442c-19.625,0.416-44.245,8.355-65.531,16.406
			c-28.066,10.615-46.651,42.658-45,72.094l1.25,22.531l-7.094-0.16c-22.251-0.271-40.625,17.871-40.625,40.125v5.188
			c0,10.662,4.325,20.879,12,28.281l31.875,30.75v0.688c0,39.67,32.33,72,72,72h100.125c39.67,0,72-32.33,72-72v-125.686
			c0-30.645-21.069-63.082-50.531-73.094c-25.803-8.77-56.807-17.648-80.469-17.188V1020.442z M205.28,1036.41
			c19.102-0.367,49.892,7.844,75,16.377c21.032,7.146,39.688,35.236,39.688,57.938v125.686c0,31.021-24.977,56-56,56H163.842
			c-31.023,0-56-24.979-56-56v-4.094c0-2.168-0.88-4.242-2.437-5.75l-34.313-33.094l0,0c-4.551-4.391-7.125-10.424-7.125-16.75
			v-5.188c0-13.535,10.872-24.293,24.406-24.125l76,0.943c6.967,0.16,13.551,2.41,18.25,6.656c4.55,4.113,5.656,9.154,5.656,14.219
			v24.5c0,6.393-2.509,12.463-6.969,16.594c-4.699,4.352-10.49,5.625-15.813,5.625h-8.563c-6.407,0-12.574-2.459-17.188-6.906
			c-2.677-2.58-8.031-7.748-8.031-7.748c-3.14-3.109-8.205-3.084-11.315,0.055c-3.109,3.141-3.085,8.205,0.055,11.314
			c0.044,0.045,0.089,0.088,0.135,0.131c0,0,5.382,5.166,8.063,7.75c7.59,7.316,17.735,11.406,28.281,11.406h8.563
			c8.034,0,18.29-2.1,26.688-9.875c7.972-7.385,12.094-17.789,12.094-28.344v-24.5c0-7.854-2.286-18.271-10.938-26.094
			c-8.05-7.277-18.469-10.561-28.687-10.75c-0.011,0-0.021,0-0.032,0l-52.906-0.656l-1.312-23.594
			c-1.204-21.463,15.088-48.838,34.687-56.252c20.59-7.787,44.886-15.076,60.188-15.406L205.28,1036.41z"/>
		<path style="fill:#5A3392;" d="M295.748,1164.41c-2.076,0.059-4.048,0.92-5.5,2.406l-6.594,6.563
			c-4.514,4.5-10.626,7.031-17,7.031h-66.563c-4.418-0.063-8.051,3.469-8.113,7.887s3.469,8.051,7.887,8.113
			c0.075,0.002,0.151,0.002,0.226,0h66.563c10.603,0,20.804-4.201,28.313-11.686l6.563-6.563c3.177-3.07,3.262-8.137,0.191-11.313
			c-1.561-1.615-3.728-2.5-5.973-2.438V1164.41z"/>
	</g>
</g>
</svg>