<?xml version="1.0" encoding="iso-8859-1"?>
<!-- Uploaded to: SVG Repo, www.svgrepo.com, Generator: SVG Repo Mixer Tools -->
<svg height="800px" width="800px" version="1.1" id="Layer_1" xmlns="http://www.w3.org/2000/svg" xmlns:xlink="http://www.w3.org/1999/xlink" 
	 viewBox="0 0 511.983 511.983" xml:space="preserve">
<path style="fill:#E9573F;" d="M197.75,85.335c-4.938,0-9.375-3.453-10.43-8.484l-4.477-21.328
	c-1.203-5.766,2.484-11.422,8.25-12.625c5.766-1.219,11.421,2.484,12.632,8.25l4.477,21.328c1.211,5.766-2.484,11.421-8.25,12.625
	C199.219,85.257,198.477,85.335,197.75,85.335z"/>
<path style="fill:#FC6E51;" d="M155.102,511.982c-3.016,0-5.992-1.266-8.086-3.688c-3.414-3.969-3.453-9.812-0.094-13.828
	c0.469-0.546,40.648-48.748,71.483-105.139c26.64-48.717,51.687-113.481,21.687-147.949l-15.187-4.516l-55.179,119.591
	c-1.445,3.141-4.32,5.375-7.719,6.016c-3.39,0.641-6.882-0.406-9.367-2.797l-22.453-21.624l-51.334,83.529
	c-2.016,3.281-5.648,5.219-9.492,5.078c-3.851-0.156-7.32-2.359-9.085-5.797c-63.897-124.325-77.03-218.933-39.023-281.197
	c18.468-30.249,48.366-51.952,88.881-64.483c32.093-9.937,62.725-11.421,78.131-11.421c6.305,0,10.062,0.25,10.219,0.266
	c5.21,0.359,9.398,4.422,9.898,9.625c0.008,0.125,1.5,14.89,6.555,32.125c5.859,19.937,14,34.952,23.671,43.67
	c3.477-2.203,12.375-9.5,29.914-33.03c7.999-10.734,15.155-21.328,19.312-27.609l-48.171-72.217c-2.835-4.25-2.266-9.906,1.359-13.5
	c3.633-3.594,9.29-4.109,13.516-1.234l97.809,66.577c0.875,0.594,1.656,1.312,2.312,2.141l38.312,47.655l10.438,4.39
	c2.844,1.188,5.031,3.547,6,6.484l7.328,22.203c1.641,4.953-0.531,10.343-5.141,12.781l-20.188,10.688
	c-2.891,1.531-6.312,1.641-9.297,0.328l-43.812-19.375c-2.281-1.016-4.125-2.766-5.234-4.984l-5.718-11.453l-15.172,18.437
	l0.984,11.828c30.327,34.39,42.748,72.717,36.921,113.982c-3.969,28.202-16.609,57.796-37.53,87.936
	c-16.438,23.671-38.03,47.796-64.194,71.718c-44.304,40.499-85.936,66.154-87.686,67.232
	C158.938,511.482,157.016,511.982,155.102,511.982z"/>
<g style="opacity:0.1;">
	<path d="M416.738,151.303L409.41,129.1c-0.969-2.938-3.156-5.297-6-6.484l-10.438-4.39L354.66,70.571
		c-0.656-0.828-1.438-1.547-2.312-2.141l-97.81-66.577c-3.453-2.344-7.868-2.422-11.344-0.422c0.227,0.141,0.453,0.266,0.672,0.422
		l97.811,66.577c0.875,0.594,1.656,1.312,2.312,2.141l38.327,47.655l10.422,4.39c2.844,1.188,5.031,3.547,6,6.484l7.328,22.203
		c1.641,4.953-0.531,10.343-5.125,12.781l-19.906,10.531l1.078,0.484c2.984,1.312,6.406,1.203,9.297-0.328l20.188-10.688
		C416.207,161.646,418.379,156.256,416.738,151.303z"/>
	<path d="M312.178,157.724l15.172-18.437l-4.031-8.062l-21.812,26.499l1,11.828c30.312,34.39,42.733,72.717,36.921,113.982
		c-3.984,28.202-16.608,57.796-37.546,87.936c-16.438,23.671-38.022,47.796-64.187,71.718
		c-44.303,40.499-85.943,66.154-87.693,67.232c-0.078,0.047-0.156,0.094-0.242,0.141c1.633,0.938,3.477,1.422,5.344,1.422
		c1.914,0,3.836-0.5,5.57-1.562c1.75-1.078,43.382-26.733,87.686-67.232c26.164-23.922,47.757-48.047,64.194-71.718
		c20.921-30.14,33.562-59.733,37.53-87.936c5.827-41.265-6.594-79.592-36.921-113.982L312.178,157.724z"/>
</g>
<g>
	<path style="fill:#E9573F;" d="M69.753,298.659c-4.89,0-9.304-3.391-10.406-8.359c-12.976-58.811-5.664-105.903,21.734-139.997
		c43.123-53.655,119.567-54.312,123.013-54.312h0.008c5.891,0.016,10.664,4.781,10.664,10.688c0,5.875-4.781,10.656-10.664,10.656
		c-0.008,0-0.008,0-0.008,0c-0.68,0-69.803,0.688-106.474,46.436c-23.07,28.797-28.937,69.811-17.437,121.919
		c1.273,5.766-2.367,11.453-8.117,12.719C71.292,298.581,70.518,298.659,69.753,298.659z"/>
	<path style="fill:#E9573F;" d="M128.04,255.988c-5.89,0-10.664-4.766-10.664-10.656c-0.008-54.655,27.554-82.764,50.678-96.717
		c24.656-14.89,49.203-16.906,50.233-16.984c5.875-0.453,11,3.953,11.445,9.828s-3.953,11-9.828,11.453
		c-0.18,0.016-21.124,1.844-41.468,14.359c-26.367,16.204-39.733,42.468-39.733,78.061
		C138.704,251.222,133.931,255.988,128.04,255.988z"/>
</g>
<path style="fill:#FFCE54;" d="M487.111,255.316c-7.999,0-16.077-3.656-22.687-10.5c-22.766-23.608-55.39-54.452-55.718-54.764
	c-4.281-4.046-4.469-10.797-0.438-15.078c4.047-4.281,10.797-4.484,15.078-0.438c0.344,0.312,33.327,31.5,56.437,55.468
	c3.016,3.125,6.249,4.531,8.64,3.781c1.172-0.359,1.984-1.187,2.141-2.156c0.219-1.391-0.938-4.016-4.938-6.891
	c-4.78-3.437-5.874-10.093-2.437-14.89c3.421-4.781,10.093-5.875,14.874-2.438c10.265,7.359,15.202,17.406,13.562,27.593
	c-1.438,9-7.891,16.328-16.812,19.141C492.299,254.926,489.705,255.316,487.111,255.316z"/>
</svg>