<?xml version="1.0" encoding="iso-8859-1"?>
<!-- Uploaded to: SVG Repo, www.svgrepo.com, Generator: SVG Repo Mixer Tools -->
<svg height="800px" width="800px" version="1.1" id="Layer_1" xmlns="http://www.w3.org/2000/svg" xmlns:xlink="http://www.w3.org/1999/xlink" 
	 viewBox="0 0 512 512" xml:space="preserve">
<polygon style="fill:#AEADB3;" points="97.608,81.701 70.455,54.548 16.15,108.855 43.302,136.008 56.879,122.429 101.358,166.909 
	128.511,139.757 84.032,95.278 "/>
<polygon style="fill:#828186;" points="495.85,108.855 441.544,54.547 414.391,81.7 427.969,95.279 383.491,139.759 
	410.643,166.911 455.122,122.431 468.698,136.008 "/>
<circle style="fill:#DFDFE1;" cx="256" cy="294.4" r="217.6"/>
<path style="fill:#CFCDD2;" d="M255.999,76.8V512c120.177,0,217.6-97.422,217.6-217.6S376.175,76.8,255.999,76.8z"/>
<circle style="fill:#AEADB3;" cx="256" cy="38.4" r="38.4"/>
<path style="fill:#FF4F19;" d="M275.199,288.927V147.601h-38.4v141.326c-7.532,5.782-12.401,14.867-12.401,25.074
	c0,17.423,14.176,31.601,31.601,31.601c17.423,0,31.601-14.176,31.601-31.601C287.599,303.794,282.73,294.707,275.199,288.927z"/>
<path style="fill:#828186;" d="M294.399,38.4c0-21.207-17.193-38.4-38.4-38.4v76.8C277.207,76.8,294.399,59.607,294.399,38.4z"/>
<path style="fill:#FC0023;" d="M275.199,288.927V147.601h-19.2V345.6c17.423,0,31.601-14.176,31.601-31.601
	C287.599,303.794,282.73,294.707,275.199,288.927z"/>
</svg>