<?xml version="1.0" encoding="iso-8859-1"?>
<!-- Uploaded to: SVG Repo, www.svgrepo.com, Generator: SVG Repo Mixer Tools -->
<svg height="800px" width="800px" version="1.1" id="Layer_1" xmlns="http://www.w3.org/2000/svg" xmlns:xlink="http://www.w3.org/1999/xlink" 
	 viewBox="0 0 511.989 511.989" xml:space="preserve">
<path style="fill:#4A89DC;" d="M415.986,42.671H95.993c-29.406,0-53.334,23.921-53.334,53.327v362.664
	c0,29.405,23.929,53.327,53.334,53.327h319.993c29.405,0,53.343-23.922,53.343-53.327V95.997
	C469.328,66.592,445.391,42.671,415.986,42.671z"/>
<g style="opacity:0.1;">
	<path style="fill:#080808;" d="M383.987,479.988c-5.891,0-10.656-4.781-10.656-10.671v-10.656c0-5.891,4.766-10.671,10.656-10.671
		s10.656,4.78,10.656,10.671v10.656C394.642,475.207,389.878,479.988,383.987,479.988z"/>
	<path style="fill:#080808;" d="M341.332,479.988c-5.906,0-10.688-4.781-10.688-10.671v-10.656c0-5.891,4.781-10.671,10.688-10.671
		c5.874,0,10.655,4.78,10.655,10.671v10.656C351.987,475.207,347.206,479.988,341.332,479.988z"/>
	<path style="fill:#080808;" d="M298.645,479.988c-5.875,0-10.656-4.781-10.656-10.671v-10.656c0-5.891,4.781-10.671,10.656-10.671
		c5.906,0,10.688,4.78,10.688,10.671v10.656C309.332,475.207,304.552,479.988,298.645,479.988z"/>
	<path style="fill:#080808;" d="M255.99,479.988c-5.891,0-10.664-4.781-10.664-10.671v-10.656c0-5.891,4.773-10.671,10.664-10.671
		c5.89,0,10.663,4.78,10.663,10.671v10.656C266.652,475.207,261.879,479.988,255.99,479.988z"/>
	<path style="fill:#080808;" d="M213.326,479.988c-5.891,0-10.672-4.781-10.672-10.671v-10.656c0-5.891,4.781-10.671,10.672-10.671
		c5.89,0,10.664,4.78,10.664,10.671v10.656C223.99,475.207,219.217,479.988,213.326,479.988z"/>
	<path style="fill:#080808;" d="M170.656,479.988c-5.891,0-10.664-4.781-10.664-10.671v-10.656c0-5.891,4.773-10.671,10.664-10.671
		c5.898,0,10.671,4.78,10.671,10.671v10.656C181.326,475.207,176.553,479.988,170.656,479.988z"/>
	<path style="fill:#080808;" d="M127.993,479.988c-5.891,0-10.664-4.781-10.664-10.671v-10.656c0-5.891,4.773-10.671,10.664-10.671
		c5.89,0,10.664,4.78,10.664,10.671v10.656C138.656,475.207,133.883,479.988,127.993,479.988z"/>
	<path style="fill:#080808;" d="M85.329,479.988c-5.891,0-10.672-4.781-10.672-10.671v-10.656c0-5.891,4.781-10.671,10.672-10.671
		c5.89,0,10.664,4.78,10.664,10.671v10.656C95.993,475.207,91.219,479.988,85.329,479.988z"/>
	<path style="fill:#080808;" d="M426.642,479.988c-5.875,0-10.656-4.781-10.656-10.671v-10.656c0-5.891,4.781-10.671,10.656-10.671
		c5.905,0,10.687,4.78,10.687,10.671v10.656C437.328,475.207,432.547,479.988,426.642,479.988z"/>
</g>
<path style="fill:#5D9CEC;" d="M415.986,0H95.993C66.588,0,42.66,23.921,42.66,53.327v362.664c0,29.406,23.929,53.327,53.334,53.327
	h319.993c29.405,0,53.343-23.921,53.343-53.327V53.327C469.328,23.921,445.391,0,415.986,0z"/>
<path style="fill:#E6E9ED;" d="M167.296,176.761c14.429-34.78,48.702-59.233,88.693-59.233c39.999,0,74.264,24.453,88.685,59.233
	l59.156-24.5C379.767,94.294,322.643,53.53,255.99,53.53c-66.655,0-123.787,40.765-147.833,98.732L167.296,176.761z"/>
<g>
	<path style="fill:#4A89DC;" d="M255.99,128.2c-5.891,0-10.664-4.781-10.664-10.672v-12.797c0-5.89,4.773-10.671,10.664-10.671
		c5.89,0,10.663,4.781,10.663,10.671v12.797C266.652,123.419,261.879,128.2,255.99,128.2z"/>
	<path style="fill:#4A89DC;" d="M219.247,135.481c-4.188,0-8.156-2.469-9.859-6.578l-4.891-11.812
		c-2.258-5.438,0.328-11.672,5.773-13.938c5.445-2.25,11.679,0.328,13.937,5.781l4.891,11.797
		c2.258,5.453-0.328,11.687-5.773,13.937C221.99,135.231,220.607,135.481,219.247,135.481z"/>
	<path style="fill:#4A89DC;" d="M188.117,156.324c-2.734,0-5.461-1.047-7.547-3.125l-9.054-9.062
		c-4.164-4.156-4.164-10.921,0-15.077c4.164-4.172,10.921-4.172,15.085,0l9.054,9.046c4.164,4.172,4.164,10.921,0,15.093
		C193.576,155.277,190.842,156.324,188.117,156.324z"/>
	<path style="fill:#4A89DC;" d="M323.862,156.324c-2.718,0-5.468-1.047-7.53-3.125c-4.188-4.172-4.172-10.921,0-15.093l9.046-9.046
		c4.172-4.172,10.922-4.172,15.078,0c4.171,4.156,4.171,10.921,0,15.077l-9.047,9.062
		C329.332,155.277,326.598,156.324,323.862,156.324z"/>
	<path style="fill:#4A89DC;" d="M292.738,135.481c-1.375,0-2.75-0.25-4.094-0.812c-5.438-2.25-8.031-8.484-5.766-13.937
		l4.891-11.797c2.25-5.453,8.5-8.031,13.938-5.781c5.438,2.266,8.031,8.5,5.781,13.938l-4.906,11.812
		C300.895,133.012,296.927,135.481,292.738,135.481z"/>
</g>
<path style="fill:#434A54;" d="M255.99,85.326c-5.891,0-10.664-4.766-10.664-10.656V53.53c0-5.891,4.773-10.656,10.664-10.656
	c5.89,0,10.663,4.765,10.663,10.656v21.14C266.652,80.56,261.879,85.326,255.99,85.326z"/>
<g>
	<path style="fill:#4A89DC;" d="M384.174,405.318H128.173c-5.891,0-10.672-4.766-10.672-10.656s4.781-10.671,10.672-10.671h256.002
		c5.875,0,10.656,4.78,10.656,10.671S390.049,405.318,384.174,405.318z"/>
	<path style="fill:#4A89DC;" d="M341.332,362.664H171.014c-5.891,0-10.664-4.781-10.664-10.672s4.773-10.672,10.664-10.672H341.33
		c5.874,0,10.655,4.781,10.655,10.672S347.206,362.664,341.332,362.664z"/>
	<path style="fill:#4A89DC;" d="M344.69,187.417c-4.187,0-8.155-2.468-9.858-6.578c-13.28-31.984-44.218-52.639-78.842-52.639
		c-34.625,0-65.569,20.655-78.842,52.639c-2.258,5.437-8.5,8.015-13.937,5.765l-59.139-24.483c-2.609-1.094-4.688-3.172-5.773-5.781
		c-1.078-2.609-1.078-5.562,0.008-8.172c12.773-30.78,34.14-57.014,61.788-75.826c28.335-19.281,61.491-29.468,95.896-29.468
		s67.561,10.187,95.903,29.468c27.641,18.812,49,45.03,61.78,75.826c1.094,2.609,1.094,5.547,0,8.172
		c-1.078,2.609-3.156,4.688-5.766,5.766l-59.14,24.499C347.424,187.167,346.049,187.417,344.69,187.417z M122.446,146.637
		l39.569,16.391c18.46-34.437,54.288-56.155,93.975-56.155s75.498,21.719,93.966,56.155l39.578-16.391
		c-11.406-22.765-28.406-42.202-49.64-56.655c-24.78-16.875-53.812-25.781-83.904-25.781c-30.101,0-59.116,8.906-83.897,25.781
		C150.85,104.434,133.852,123.872,122.446,146.637z"/>
</g>
</svg>